# xmcd
# 
# Track frame offsets:
#     150
#     17430
#     27807
#     39147
#     45877
#     63257
#     77150
#     87850
# 
# Disc length: 1318
# 
# Revision: 1
# Processed by: cddbd v1.5.2PL0 Copyright (c) Steve Scherf et al.
# Submitted via: fre:ac v1.0.17
# 
DISCID=47052408
DTITLE=No Use For A Name - Daily Grind
DYEAR=1993
DGENRE=Punk Rock
TTITLE0=Until Its gone
TTITLE1=Old Whats his name
TTITLE2=Permanent rust
TTITLE3=Biomag
TTITLE4=Countdown
TTITLE5=Hazardous to yourself
TTITLE6=The Daily grind
TTITLE7=Feeding The Fire
EXTD=
EXTT0=
EXTT1=
EXTT2=
EXTT3=
EXTT4=
EXTT5=
EXTT6=
EXTT7=
PLAYORDER=
